<svg id="Layer_3" data-name="Layer 3" xmlns="http://www.w3.org/2000/svg" viewBox="0 0 1000 1000"><defs><style>.cls-1{fill:none;stroke:#1d1d1b;stroke-linecap:round;stroke-linejoin:round;stroke-width:80px;}</style></defs><path class="cls-1" d="M191.49,324.08V510.46s-2.09,76.25,95.3,76.25c106.2,0,96.67-88.47,96.67-88.47l.22-174.16"/><path class="cls-1" d="M665.33,516.28v54.54a98.39,98.39,0,0,1-7.62,38.25c-11.43,27.09-39.19,65.33-104.85,65.33-57.33,0-361.38,1.52-361.38,1.52"/><path class="cls-1" d="M383.71,508.14s-3.37,78.57,95.63,78.57c100.92,0,96.67-80.33,96.67-80.33l.22-182.3"/><path class="cls-1" d="M665.33,516.27h97.28s76.24,2.09,76.24-95.3c0-106.2-88.46-96.67-88.46-96.67l-174.16-.22"/></svg>