<svg version="1.1" viewBox="0.0 0.0 960.0 720.0" fill="none" stroke="none" stroke-linecap="square" stroke-miterlimit="10" xmlns:xlink="http://www.w3.org/1999/xlink" xmlns="http://www.w3.org/2000/svg"><clipPath id="p.0"><path d="m0 0l960.0 0l0 720.0l-960.0 0l0 -720.0z" clip-rule="nonzero"/></clipPath><g clip-path="url(#p.0)"><path fill="#000000" fill-opacity="0.0" d="m0 0l960.0 0l0 720.0l-960.0 0z" fill-rule="evenodd"/><path fill="#000000" fill-opacity="0.0" d="m0 27.102362l960.0 0l0 665.7953l-960.0 0z" fill-rule="evenodd"/><path fill="#000000" d="m67.125 548.10236l-7.453125 -343.46875l125.859375 0l-1.59375 131.20312l35.1875 -73.0625l12.265625 -58.140625l105.078125 0l10.65625 131.73438l57.078125 -131.73438l125.328125 0l-152.0 343.46875l-108.796875 0l-12.796875 -135.46875l-72.546875 135.46875l-116.265625 0zm416.53375 0l72.53125 -343.46875l193.0625 0q35.734375 0 58.9375 13.078125q23.203125 13.0625 34.9375 35.734375q11.734375 22.65625 11.734375 51.453125q0 8.0 -0.8125 16.265625q-0.796875 8.265625 -2.921875 17.34375q-8.0 37.328125 -28.0 67.46875q-20.0 30.125 -52.796875 47.734375q-32.796875 17.59375 -79.734375 17.59375l-61.875 0l-16.0 76.796875l-129.0625 0zm166.40625 -177.59375l31.46875 0q15.453125 0 25.3125 -8.53125q9.875 -8.546875 13.078125 -23.46875q1.609375 -6.40625 1.609375 -11.203125q0 -21.875 -24.0 -21.875l-33.609375 0l-13.859375 65.078125z" fill-rule="nonzero"/></g></svg>